<svg xmlns="http://www.w3.org/2000/svg" version="1.1" xmlns:xlink="http://www.w3.org/1999/xlink" xmlns:svgjs="http://svgjs.com/svgjs" width="1440" height="560" preserveAspectRatio="none" viewBox="0 0 1440 560"><g mask="url(&quot;#SvgjsMask1009&quot;)" fill="none"><rect width="1440" height="560" x="0" y="0" fill="rgba(22, 24, 25, 1)"></rect><path d="M 0,214 C 19.2,185.6 57.6,75.8 96,72 C 134.4,68.2 153.6,196.2 192,195 C 230.4,193.8 249.6,75.4 288,66 C 326.4,56.6 345.6,158.2 384,148 C 422.4,137.8 441.6,-2.8 480,15 C 518.4,32.8 537.6,220.2 576,237 C 614.4,253.8 633.6,103.6 672,99 C 710.4,94.4 729.6,232 768,214 C 806.4,196 825.6,5.4 864,9 C 902.4,12.6 921.6,222.2 960,232 C 998.4,241.8 1017.6,53.4 1056,58 C 1094.4,62.6 1113.6,241 1152,255 C 1190.4,269 1209.6,139 1248,128 C 1286.4,117 1305.6,201.2 1344,200 C 1382.4,198.8 1420.8,137.6 1440,122L1440 560L0 560z" fill="rgba(30, 35, 35, 1)"></path><path d="M 0,394 C 24,408.6 72,462.2 120,467 C 168,471.8 192,415.8 240,418 C 288,420.2 312,485.8 360,478 C 408,470.2 432,388.8 480,379 C 528,369.2 552,443.4 600,429 C 648,414.6 672,286.8 720,307 C 768,327.2 792,524.8 840,530 C 888,535.2 912,350.6 960,333 C 1008,315.4 1032,433.6 1080,442 C 1128,450.4 1152,354.8 1200,375 C 1248,395.2 1272,550.2 1320,543 C 1368,535.8 1416,379.8 1440,339L1440 560L0 560z" fill="rgba(3, 3, 4, 0.96)"></path></g><defs><mask id="SvgjsMask1009"><rect width="1440" height="560" fill="#ffffff"></rect></mask></defs></svg>